<svg width="24" height="24" viewBox="0 0 24 24" fill="none" xmlns="http://www.w3.org/2000/svg">
<path d="M20.9538 0C20.9538 0 19.6494 1.18048 15.9784 1.18048C14.8511 1.18048 14.0181 0.983892 13.405 0.711831C12.3587 0.246905 11.1568 0.233861 10.1105 0.697855C9.48065 0.97737 8.61881 1.18048 7.44392 1.18048C3.6863 1.18048 2.35115 0 2.35115 0C2.35115 0 1.56106 8.17022 2.35115 12.6406C3.34902 18.2887 7.90977 21.982 10.2959 23.5631C11.1829 24.151 12.3364 24.1454 13.2168 23.5473C15.5545 21.9578 19.982 18.27 20.9538 12.6406C21.7253 8.17115 20.9538 0 20.9538 0Z" fill="#E1E1E1"/>
<path d="M20.5972 0.696289C20.5972 0.696289 19.3562 1.80783 15.8623 1.80783C14.7889 1.80783 13.997 1.62242 13.4137 1.36619C12.4177 0.928286 11.2745 0.915242 10.2785 1.35315C9.67847 1.61589 8.85855 1.80783 7.74143 1.80783C4.16457 1.80783 2.89371 0.696289 2.89371 0.696289C2.89371 0.696289 2.27318 8.37177 2.89371 12.6036C3.6866 18.0141 8.18306 21.4037 10.4546 22.8926C11.2987 23.446 12.3963 23.4413 13.2339 22.8777C15.4579 21.3804 19.6721 17.907 20.5972 12.6036C21.3314 8.3932 20.5972 0.696289 20.5972 0.696289Z" fill="white"/>
<path d="M11.7699 1.66542V22.6505C11.3366 22.6402 10.9061 22.5116 10.5297 22.2638C8.38958 20.8606 4.15214 17.6667 3.4049 12.5684C2.82072 8.58061 3.4049 1.34863 3.4049 1.34863C3.4049 1.34863 4.60309 2.39588 7.97311 2.39588C9.02595 2.39588 9.79927 2.21513 10.3639 1.96729C10.8111 1.7707 11.2891 1.67101 11.7699 1.66542Z" fill="#E7E7E7"/>
</svg>
