<svg width="24" height="24" viewBox="0 0 24 24" fill="none" xmlns="http://www.w3.org/2000/svg">
<g clip-path="url(#clip0_1929_188506)">
<path fill-rule="evenodd" clip-rule="evenodd" d="M13.7933 14.797L8.18985 5.26481C7.58899 4.24304 7.60543 2.97247 8.23191 1.96616L8.56158 1.43716C8.8463 0.979654 9.46021 0.860809 9.89574 1.17821L18.3218 7.32623C18.9289 7.76924 19.1174 8.59052 18.765 9.25382L15.8415 14.753C15.4108 15.5632 14.2584 15.5878 13.7938 14.797H13.7933Z" fill="white" stroke="white" stroke-width="0.198" stroke-miterlimit="2.61"/>
<path fill-rule="evenodd" clip-rule="evenodd" d="M16.1295 16.3976L19.7143 9.33412C20.102 8.57032 20.8237 8.03166 21.6663 7.87658L22.2352 7.77223C22.6872 7.68914 23.0792 8.08963 22.9869 8.5394L21.4739 15.8981C21.3226 16.6339 20.6744 17.1624 19.9227 17.1624H16.5989C16.2059 17.1624 15.9511 16.7479 16.129 16.3976H16.1295Z" fill="white" stroke="white" stroke-width="0.198" stroke-miterlimit="2.61"/>
<path fill-rule="evenodd" clip-rule="evenodd" d="M15.4296 18.6362H17.6726C17.9563 18.6362 18.0487 19.0169 17.7963 19.1469L13.1055 21.559C12.8493 21.6909 12.5916 21.3837 12.7671 21.1547L14.2453 19.2218C14.5271 18.8527 14.9651 18.6367 15.4296 18.6367V18.6362Z" fill="white" stroke="white" stroke-width="0.198" stroke-miterlimit="2.61"/>
<path fill-rule="evenodd" clip-rule="evenodd" d="M7.5223 22.587L3.09345 17.9125C2.73284 17.5318 3.05188 16.91 3.57153 16.9801L11.9342 18.1081C12.727 18.2149 13.0417 19.1922 12.4611 19.7415L9.3969 22.6387C8.86517 23.1416 8.026 23.1184 7.5223 22.587Z" fill="white" stroke="white" stroke-width="0.198" stroke-miterlimit="2.61"/>
<path fill-rule="evenodd" clip-rule="evenodd" d="M7.392 7.48108L12.0118 14.6924C12.5812 15.5808 11.8542 16.7297 10.8067 16.5963L2.91869 15.5929C1.92725 15.4668 1.38585 14.3707 1.88857 13.5078L5.37336 7.52407C5.81856 6.7598 6.9149 6.73661 7.39152 7.48108H7.392Z" fill="white" stroke="white" stroke-width="0.198" stroke-miterlimit="2.61"/>
<path fill-rule="evenodd" clip-rule="evenodd" d="M13.677 2.22656L20.2642 7.4673L21.7443 6.33877L13.677 2.22656Z" fill="white" stroke="white" stroke-width="0.198" stroke-miterlimit="2.61"/>
<path fill-rule="evenodd" clip-rule="evenodd" d="M5.07942 2.42441L3.8632 4.46699C3.65437 4.81724 4.04737 5.21629 4.40121 5.01387L6.14095 4.0177C6.32367 3.91335 6.39279 3.68436 6.29853 3.49643L5.77502 2.45002C5.63483 2.16982 5.23942 2.15532 5.07942 2.42441Z" fill="white" stroke="white" stroke-width="0.198" stroke-miterlimit="2.61"/>
<path fill-rule="evenodd" clip-rule="evenodd" d="M1.06763 10.6145L0.99995 8.47917C0.976264 7.72842 1.40842 7.03758 2.09435 6.73032L3.8568 5.94044C4.19228 5.78971 4.52292 6.16025 4.33488 6.47621L1.76806 10.7952C1.57567 11.1189 1.07923 10.9913 1.06763 10.615V10.6145Z" fill="white" stroke="white" stroke-width="0.198" stroke-miterlimit="2.61"/>
</g>
<defs>
<clipPath id="clip0_1929_188506">
<rect width="24" height="24" fill="white"/>
</clipPath>
</defs>
</svg>
