<svg width="198" height="32" viewBox="0 0 198 32" fill="none" xmlns="http://www.w3.org/2000/svg">
<path d="M38.4014 21.8753V10.3174H40.3085L46.0405 16.2369L45.9612 10.3174H49.0544V21.8753H47.1653L41.4333 15.9557L41.4945 21.8753H38.4014Z" fill="black"/>
<path d="M55.3488 19.3301H60.2048V21.8753H52.2556V10.3174H60.1111V12.8626H55.3488V14.7697H59.5523V17.3148H55.3488V19.3301Z" fill="black"/>
<path d="M69.7117 10.8002C70.3318 11.121 70.8113 11.5825 71.1574 12.1737C71.4999 12.7685 71.6729 13.4535 71.6729 14.2358C71.6729 15.0578 71.4962 15.7824 71.1429 16.4061C70.7896 17.0297 70.2885 17.5164 69.6432 17.8589C68.9979 18.2014 68.2481 18.3744 67.3937 18.3744H66.0958V21.8714H63.0027V10.3135H67.5631C68.3742 10.3171 69.0917 10.4793 69.7117 10.8002ZM68.1796 15.4327C68.3923 15.1659 68.5004 14.8054 68.5004 14.3476C68.5004 13.9005 68.3887 13.54 68.1651 13.2696C67.9416 12.9993 67.6352 12.8623 67.2531 12.8623H66.0958V15.8293H67.2531C67.6568 15.8293 67.9669 15.6995 68.1796 15.4327Z" fill="black"/>
<path d="M82.3726 10.3174V12.8626H79.42V21.8753H76.3268V12.8626H73.3743V10.3174H82.3726Z" fill="black"/>
<path d="M87.0088 21.4931C86.2698 21.1326 85.6966 20.6279 85.2892 19.979C84.8818 19.3301 84.6799 18.5766 84.6799 17.7222V10.3174H87.7551V17.5816C87.7551 18.1548 87.9209 18.6163 88.2562 18.966C88.5879 19.3157 89.0313 19.4887 89.5829 19.4887C90.1128 19.4887 90.5418 19.3157 90.8699 18.966C91.1979 18.6163 91.3602 18.1548 91.3602 17.5816V10.3174H94.4533V17.7222C94.4533 18.5766 94.2514 19.3301 93.8441 19.979C93.4367 20.6279 92.8635 21.1362 92.1244 21.4931C91.3854 21.8536 90.531 22.0339 89.5648 22.0339C88.6023 22.0339 87.7479 21.8536 87.0088 21.4931Z" fill="black"/>
<path d="M97.5354 21.8753V10.3174H99.4425L105.175 16.2369L105.095 10.3174H108.188V21.8753H106.299L100.567 15.9557L100.629 21.8753H97.5354Z" fill="black"/>
<path d="M114.483 19.3301H119.339V21.8753H111.39V10.3174H119.245V12.8626H114.479V14.7697H118.683V17.3148H114.479V19.3301H114.483Z" fill="black"/>
<path d="M139.07 21.8753H135.976L135.663 15.8296L133.399 21.8753H131.791L129.527 15.862L129.213 21.8753H126.12L126.917 10.3174H130.385L132.588 16.7525L134.805 10.3174H138.273L139.07 21.8753Z" fill="black"/>
<path d="M144.131 21.4931C143.392 21.1326 142.819 20.6279 142.412 19.979C142.004 19.3301 141.802 18.5766 141.802 17.7222V10.3174H144.877V17.5816C144.877 18.1548 145.043 18.6163 145.379 18.966C145.71 19.3157 146.154 19.4887 146.705 19.4887C147.235 19.4887 147.664 19.3157 147.992 18.966C148.32 18.6163 148.482 18.1548 148.482 17.5816V10.3174H151.576V17.7222C151.576 18.5766 151.374 19.3301 150.966 19.979C150.559 20.6279 149.986 21.1362 149.247 21.4931C148.508 21.8536 147.653 22.0339 146.687 22.0339C145.725 22.0339 144.87 21.8536 144.131 21.4931Z" fill="black"/>
<path d="M162.874 10.3174V12.8626H159.921V21.8753H156.828V12.8626H153.876V10.3174H162.874Z" fill="black"/>
<path d="M167.514 21.4931C166.775 21.1326 166.201 20.6279 165.794 19.979C165.387 19.3301 165.185 18.5766 165.185 17.7222V10.3174H168.26V17.5816C168.26 18.1548 168.426 18.6163 168.761 18.966C169.093 19.3157 169.536 19.4887 170.088 19.4887C170.618 19.4887 171.047 19.3157 171.375 18.966C171.703 18.6163 171.865 18.1548 171.865 17.5816V10.3174H174.958V17.7222C174.958 18.5766 174.756 19.3301 174.349 19.979C173.942 20.6279 173.368 21.1362 172.629 21.4931C171.89 21.8536 171.036 22.0339 170.07 22.0339C169.107 22.0339 168.253 21.8536 167.514 21.4931Z" fill="black"/>
<path d="M184.634 21.8753L184.119 20.2025H180.337L179.807 21.8753H176.512L180.791 10.3174H183.65L187.929 21.8753H184.634ZM181.134 17.6573H183.318L182.226 14.1748L181.134 17.6573Z" fill="black"/>
<path d="M193.081 19.3301H197.285V21.8753H189.991V10.3174H193.085V19.3301H193.081Z" fill="black"/>
<path d="M16 32C24.8366 32 32 24.8366 32 16C32 7.16344 24.8366 0 16 0C7.16344 0 0 7.16344 0 16C0 24.8366 7.16344 32 16 32Z" fill="black"/>
<path d="M17.1438 21.3842C16.8662 21.1426 16.3687 21.0921 15.8279 21.1606C15.2871 21.0849 14.7751 21.139 14.512 21.3842C14.6454 21.4274 15.3303 21.6474 15.8567 21.6474C16.3867 21.6474 17.0392 21.4202 17.1438 21.3842Z" fill="white"/>
<path d="M18.2652 24.1319C18.4419 23.8543 18.6077 23.5947 18.6546 23.2847C18.7195 22.8448 18.5464 22.4519 18.377 22.1815C18.24 21.9688 18.0309 21.8173 17.7929 21.7344H17.7893C17.6559 21.6876 17.5225 21.6371 17.4144 21.583C17.2341 21.7633 16.715 22.1995 15.8281 22.1995C15.0025 22.1995 14.404 21.8173 14.1552 21.6227C14.0687 21.6587 13.9786 21.6912 13.8848 21.7236C13.7406 21.7777 13.6072 21.857 13.4991 21.9688C13.3116 22.1959 12.9619 22.7114 13.0484 23.3099C13.0953 23.62 13.2611 23.8795 13.4378 24.1571C13.701 24.5645 13.9858 25.1738 13.7515 25.83C13.7154 25.9345 13.6649 26.0391 13.6 26.1436C13.6505 26.2265 13.8776 26.5114 14.2021 26.7962C14.5843 27.1351 15.1178 27.4739 15.7019 27.5172C15.6334 27.4199 15.5505 27.2468 15.6478 27.1026C15.673 27.0521 15.7235 26.9981 15.7848 26.9296C15.9867 26.6844 16.3256 26.2914 16.2066 25.9237L16.167 25.7903L16.2859 25.866C16.2967 25.8804 16.6176 26.1112 16.221 26.9764C16.1093 27.2108 16.0985 27.4271 16.1742 27.6073C16.2715 27.8417 16.4914 27.9679 16.6032 28.0183C16.632 27.7732 16.7979 26.9548 17.4576 26.9476C17.6884 26.9476 18.0958 26.7745 18.3409 26.5041C17.6451 25.6605 17.9588 24.6042 18.2652 24.1319Z" fill="white"/>
<path d="M18.11 19.2C17.9082 19.0197 17.7207 18.8467 17.5729 18.7169C17.5548 18.8214 17.4719 18.9512 17.2412 19.0918C17.2196 19.1026 17.1943 19.117 17.1727 19.1315C16.9347 19.2721 16.567 19.4091 15.9938 19.5533C15.9433 19.5677 15.7234 19.5749 15.6801 19.5605C15.6549 19.5533 15.626 19.5497 15.6044 19.5425C15.0636 19.4019 14.7103 19.2649 14.4868 19.1315C14.1479 18.9512 14.0722 18.7854 14.0722 18.6592C13.9676 18.7565 13.8451 18.8827 13.6972 19.0197C13.3295 19.373 12.8789 19.8237 12.457 20.1842C11.6315 20.9088 11.1736 23.2919 11.4728 24.4311C11.5846 24.8746 11.8478 25.2135 12.0749 25.5055C12.3525 25.8732 12.594 26.1905 12.4715 26.5799C12.4282 26.7097 12.4354 26.8214 12.4967 26.926C12.6013 27.1134 12.8789 27.2649 13.2826 27.3694C13.0771 27.2072 12.6806 26.6952 13.124 25.7038C13.2718 25.264 13.1312 25.008 12.832 24.5465C12.6301 24.2329 12.403 23.8795 12.3345 23.4145C12.1614 22.2247 13.243 21.3126 13.2826 21.273C13.2826 21.273 13.4124 21.1071 13.517 21.0927C13.8919 21.0458 14.4868 20.4546 15.0168 20.6493C15.3412 20.7754 15.6333 20.8043 15.8063 20.8115V20.8043C15.8063 20.8043 15.8279 20.8115 15.8604 20.8115C15.8892 20.8115 15.9253 20.8115 15.9649 20.8043C16.1055 20.7971 16.3399 20.7682 16.6463 20.6493C17.1655 20.4546 17.8577 21.0675 18.2326 21.1143C18.3191 21.1252 18.3804 21.1756 18.4237 21.2477C18.4309 21.2549 18.4417 21.2658 18.4598 21.2874C18.658 21.464 19.5233 22.3149 19.3683 23.3892C19.2998 23.8543 19.0726 24.2076 18.8707 24.5213C18.6112 24.9215 18.5968 25.2856 18.6977 25.7218C18.7229 25.8011 18.7446 25.8841 18.7626 25.9706C18.7662 25.9778 18.7662 25.985 18.7698 25.9922C18.8671 26.4176 18.8671 26.9043 18.4561 27.2973C18.4345 27.3225 18.4129 27.3442 18.3913 27.3622C18.6364 27.3081 19.015 27.1639 19.1484 26.926C19.2096 26.8214 19.2241 26.7097 19.1772 26.5799C19.051 26.1905 19.2926 25.8732 19.5702 25.5055C19.8009 25.2135 20.0641 24.8746 20.1758 24.4311C20.4715 23.2919 20.0136 20.9088 19.1916 20.1842C18.8419 19.8886 18.4561 19.5208 18.11 19.2Z" fill="white"/>
<path d="M22.0326 19.7297C22.0326 19.672 22.0434 19.6108 22.0579 19.5495C22.0615 19.5423 22.0615 19.5314 22.0651 19.5242C22.1156 19.3007 22.1408 19.0808 22.148 18.8681C22.1588 18.4354 22.0867 18.0389 22.0002 17.7072C21.856 17.1989 21.6649 16.8455 21.6325 16.7843C21.6288 16.777 21.6252 16.7734 21.6252 16.7734C21.5099 16.9573 21.1674 17.5305 20.8645 18.2299C20.6843 18.6409 20.522 19.0952 20.4319 19.535C20.385 19.7622 20.3562 19.9857 20.3562 20.1984C20.3562 20.7969 20.5581 21.2475 20.7564 21.691C21.0268 22.3003 21.3044 22.9312 21.07 23.9298C21.582 23.335 21.8992 22.5418 21.4955 21.5792C21.4955 21.5792 21.9064 21.6477 21.9858 22.1705C22.1372 22.0371 22.5121 21.6549 22.5121 21.0925C22.5121 20.6995 22.3787 20.5048 22.2489 20.3102C22.1372 20.1443 22.0326 19.9929 22.0326 19.7297Z" fill="white"/>
<path d="M9.90464 15.6089C9.97314 15.5908 10.0344 15.5548 10.0993 15.526C10.1137 15.5115 10.1318 15.5079 10.1462 15.5007V15.4935C10.1678 15.4863 10.1822 15.4719 10.2039 15.4575C11.1376 14.7833 11.2818 12.357 12.248 11.7405C12.4571 11.5566 12.8537 11.3547 13.5099 11.1528C13.9749 11.0122 14.3679 10.6949 14.5878 10.2695C12.9871 10.4065 11.5162 10.7887 10.3301 11.3367C10.2183 11.5061 9.96233 11.8739 9.82894 12.0469C9.37828 12.6562 8.86273 13.3412 8.73295 14.1415C8.81587 14.1271 8.98892 14.0767 9.27373 13.8712L9.38549 13.7918L9.34944 13.9252C9.24489 14.2713 9.15476 14.603 9.02497 14.8337C8.67887 15.4647 8.68608 16.3335 8.77621 17.0293C8.82668 17.4115 8.90239 17.7432 8.96008 17.9595C8.96729 17.8982 8.98171 17.8225 8.99613 17.7468C8.99613 17.7468 8.99613 17.7468 8.99613 17.7396C9.00334 17.5881 9.01776 17.4151 9.043 17.2276C9.13313 16.5715 9.36026 15.8 9.90464 15.6089Z" fill="white"/>
<path d="M11.2399 9.88021C12.6639 9.40432 14.3296 9.13393 16.125 9.13393C17.8699 9.13393 19.4886 9.3899 20.8803 9.84055C20.9091 9.79368 20.9343 9.74681 20.9596 9.70355C21.093 9.46561 21.2228 9.23848 21.3489 9.00774L22.9388 6.24253L19.9537 6.99603L20.4945 7.28805C20.7865 7.44668 20.9199 7.78196 20.8082 8.06678C20.682 8.36962 20.3359 8.52464 20.0258 8.40567C19.2074 8.07399 18.3314 7.85046 17.4156 7.72428C17.1272 7.68462 16.9109 7.42865 16.9109 7.12942C16.9109 6.76169 17.2101 6.46245 17.5779 6.46245H18.0069L16.0493 4.03613L14.088 6.46245H14.517C14.8848 6.46245 15.184 6.76169 15.184 7.12942C15.184 7.42865 14.9677 7.68462 14.6793 7.72428C13.7059 7.85046 12.7577 8.10644 11.8636 8.4958H11.8131C11.4886 8.39846 11.2723 8.17494 11.2435 7.90454C11.2255 7.65578 11.3408 7.42144 11.5644 7.30968L12.1412 6.99603L9.15967 6.24253L10.7388 9.00053C10.9046 9.29977 11.074 9.58458 11.2399 9.88021Z" fill="white"/>
<path d="M22.3031 13.9253L22.2706 13.7919L22.3788 13.8712C22.6997 14.0984 22.9701 14.1669 23.0854 14.1957C22.9556 13.4314 22.4076 12.7536 21.9209 12.1515C21.7767 11.9713 21.6073 11.6108 21.4631 11.3259C20.2445 10.7671 18.7231 10.3814 17.0647 10.2588C17.2125 10.5508 17.3928 10.8176 17.6451 11.0051C17.6487 11.0051 17.656 11.0123 17.656 11.0123C17.811 11.088 17.9696 11.1457 18.1355 11.1709C18.2256 11.1853 18.3301 11.1998 18.4491 11.1998C18.5032 11.1998 18.5573 11.207 18.6149 11.2142C18.8637 11.2538 19.0728 11.3872 19.2531 11.5819C19.2855 11.6144 19.3288 11.6504 19.3648 11.6937C19.3684 11.7009 19.3829 11.7117 19.3901 11.7261C20.2157 12.6779 20.5077 14.7834 21.4523 15.4575C21.4703 15.4719 21.4847 15.4864 21.5063 15.4936C21.5208 15.508 21.5424 15.5116 21.5532 15.5188C21.6181 15.5549 21.6794 15.5909 21.7479 15.6089C22.3211 15.8108 22.5446 16.6545 22.624 17.3286C22.6384 17.4765 22.6492 17.6171 22.6564 17.7396C22.6564 17.7468 22.6564 17.7468 22.6564 17.7468C22.6708 17.8226 22.6852 17.8983 22.6925 17.9596C22.7393 17.7721 22.8042 17.4945 22.8547 17.1664C22.9628 16.449 23.0025 15.508 22.6276 14.8338C22.505 14.6175 22.4221 14.3327 22.3031 13.9253Z" fill="white"/>
<path d="M10.7339 18.1434C10.4455 17.4837 10.121 16.9465 10.0129 16.7734C10.0129 16.7734 10.0093 16.777 10.0057 16.7843C9.97321 16.8455 9.80015 17.1628 9.66316 17.6279C9.56942 17.9523 9.4901 18.3489 9.4901 18.7815C9.4901 19.0231 9.51534 19.2683 9.57302 19.5242C9.57663 19.5314 9.57663 19.5423 9.58024 19.5495C9.59466 19.6108 9.60547 19.672 9.60547 19.7297C9.60547 19.9929 9.50092 20.1443 9.38916 20.3102C9.25937 20.5048 9.12598 20.6995 9.12598 21.0925C9.12598 21.6549 9.50092 22.0371 9.65234 22.1705C9.73166 21.6477 10.1427 21.5792 10.1427 21.5792C9.73887 22.5418 10.0561 23.335 10.5681 23.9298C10.3337 22.9312 10.6113 22.3003 10.8817 21.691C11.08 21.2475 11.2819 20.7969 11.2819 20.1984C11.2819 19.9677 11.2495 19.7225 11.1954 19.4774C11.0944 19.0231 10.9214 18.558 10.7339 18.1434Z" fill="white"/>
<path d="M16.5166 14.5313C16.5166 14.5169 16.5166 14.5024 16.5238 14.4916C16.5455 14.4375 16.6933 14.3582 16.9096 14.2645C17.627 13.9617 19.0186 13.5507 19.3323 13.5218C19.4332 13.5182 19.5594 13.5687 19.6892 13.6588V13.6552C19.6928 13.6588 19.7 13.6624 19.7036 13.666C19.3503 12.808 18.8997 12.0653 18.157 12.0653C17.2052 12.0653 16.6104 11.1099 16.257 10.2266H16.2534V10.223C16.1381 10.2158 16.0227 10.2158 15.9073 10.2158C15.8785 10.2158 15.8497 10.2158 15.8208 10.2194C15.673 10.2158 15.5288 10.2194 15.3846 10.2266C15.0277 11.1099 14.4364 12.0653 13.481 12.0653C12.7383 12.0653 12.2877 12.808 11.9344 13.666C11.938 13.6624 11.9452 13.6588 11.9488 13.6552V13.6588C12.0786 13.5687 12.2048 13.5182 12.3057 13.5218C12.6194 13.5507 14.011 13.9617 14.7284 14.2645C14.9447 14.3582 15.0926 14.4375 15.1142 14.4916C15.1178 14.5024 15.1214 14.5169 15.1214 14.5385L15.125 17.0189C14.9303 16.8242 14.8222 16.2582 14.7645 15.8111C14.7573 15.8039 14.7465 15.8003 14.7392 15.7931V15.7895C14.732 15.7859 14.7248 15.7823 14.7212 15.7787C14.678 15.7534 14.6347 15.7318 14.5914 15.7138C14.5734 15.7102 14.559 15.703 14.5446 15.6994C14.4941 15.685 14.4436 15.6741 14.3931 15.6705C14.3895 15.6705 14.3895 15.6705 14.3859 15.6705C14.3859 15.6705 14.3859 15.6705 14.3823 15.6705C14.1336 15.6705 13.7875 15.8219 13.2791 15.8111C13.207 15.8111 13.1313 15.8075 13.052 15.7967C12.7564 15.7607 12.4643 15.6453 12.2192 15.4686L11.9488 15.2848C11.9488 15.2848 12.2841 14.8521 13.034 14.8594C13.1385 14.863 13.2539 14.8738 13.3765 14.8954C13.5423 14.9242 13.6937 14.9495 13.8415 14.9747C14.184 15.0324 14.4761 15.0865 14.6888 15.2199C14.6924 15.2235 14.6996 15.2235 14.7068 15.2271C14.6527 15.1442 14.5914 15.0685 14.5301 15C14.5013 14.9639 14.4689 14.9315 14.4364 14.899C14.4148 14.8774 14.3967 14.8521 14.3715 14.8305C13.7442 14.2393 12.9078 14.1671 12.2372 14.2393C12.0353 14.2609 11.8442 14.2969 11.6856 14.333C11.3251 15.3316 11.1484 16.2654 10.6293 16.269H10.6257C10.5896 16.269 10.55 16.269 10.5139 16.2834V16.287C10.5139 16.287 10.5211 16.2942 10.5247 16.2978L11.4188 17.7471C11.4513 17.8192 11.4801 17.8914 11.5017 17.9599C11.5558 18.187 11.6351 18.3781 11.7253 18.5439C11.7577 18.6088 11.7938 18.6665 11.8262 18.7206C11.8623 18.7782 11.8983 18.8287 11.9344 18.8756C11.9668 18.9188 11.9993 18.9621 12.0281 18.9982C12.093 19.0739 12.1471 19.1352 12.1903 19.182C12.212 19.2 12.6374 19.063 12.8393 18.9513C12.9006 18.9188 12.9655 18.8828 13.034 18.8503C13.1097 18.8071 13.189 18.7674 13.2719 18.7278C13.5207 18.616 14.0903 18.4177 14.0939 18.4177C14.1408 18.1509 14.2597 17.6786 14.5914 17.6354C14.6383 17.6318 14.6888 17.6318 14.7428 17.6462C14.9159 17.6859 14.988 17.8589 15.0205 17.9599C15.0024 17.9418 14.9844 17.9382 14.9592 17.9382C14.9592 17.9382 14.9556 17.9382 14.952 17.9382C14.9051 17.9418 14.833 17.9526 14.7032 17.9382C14.6996 17.9382 14.696 17.9382 14.696 17.9382C14.6816 17.9382 14.6671 17.9346 14.6563 17.9346C14.4148 17.9346 14.4328 18.2158 14.458 18.4213V18.4249C14.458 18.4249 14.5986 18.4898 14.7897 18.5763C14.8438 18.6016 14.9015 18.6268 14.9628 18.6557C15.0421 18.6917 15.1214 18.7278 15.2043 18.7638C15.4783 18.8792 15.7451 18.9873 15.8208 19.0018C15.8244 19.0018 15.828 19.0018 15.828 19.0018C15.9758 19.009 17.0358 18.5006 17.1656 18.4393C17.1764 18.4357 17.18 18.4321 17.18 18.4321C17.18 18.4321 17.18 18.4285 17.18 18.4249V18.4213C17.2052 18.2158 17.2232 17.9346 16.9817 17.9346C16.9709 17.9346 16.9565 17.9382 16.942 17.9382C16.9384 17.9382 16.9384 17.9382 16.9348 17.9382C16.8988 17.9346 16.7726 17.9238 16.6861 17.9382C16.6825 17.9382 16.6825 17.9382 16.6789 17.9382C16.6536 17.9382 16.6356 17.9418 16.6176 17.9599C16.65 17.8589 16.7221 17.6859 16.8952 17.6462C16.9492 17.6318 16.9997 17.6318 17.0466 17.6354C17.3783 17.6786 17.4972 18.1509 17.5441 18.4177C17.5477 18.4177 18.1173 18.616 18.3661 18.7278C18.431 18.7602 18.4959 18.7927 18.5572 18.8251C18.6437 18.8684 18.7266 18.9116 18.7987 18.9513C19.0006 19.063 19.426 19.2 19.4477 19.182C19.4909 19.1352 19.545 19.0739 19.6099 18.9982C19.6387 18.9621 19.6712 18.9188 19.7036 18.8756C19.7397 18.8287 19.7757 18.7782 19.8118 18.7206C19.8442 18.6665 19.8803 18.6088 19.9127 18.5439C19.9236 18.5259 19.9344 18.5042 19.9452 18.4826C19.9632 18.4466 19.9812 18.4069 19.9993 18.3636C20.0173 18.324 20.0353 18.2807 20.0497 18.2375C20.0678 18.1942 20.0822 18.1509 20.0966 18.1041C20.111 18.0572 20.1255 18.0103 20.1363 17.9599C20.1579 17.8914 20.1867 17.8192 20.2192 17.7471L21.1457 16.3159C21.1493 16.3123 21.1565 16.3051 21.1565 16.3051V16.3014C21.1205 16.287 21.0808 16.287 21.0448 16.287H21.0412C20.522 16.2834 20.3129 15.3316 19.9524 14.333C19.7938 14.2969 19.6027 14.2609 19.4008 14.2393C18.7302 14.1671 17.8938 14.2393 17.2665 14.8305C17.2413 14.8521 17.2232 14.8774 17.2016 14.899C17.1692 14.9315 17.1367 14.9639 17.1079 15C17.0466 15.0685 16.9853 15.1442 16.9312 15.2271C16.9384 15.2235 16.9456 15.2235 16.9492 15.2199C17.162 15.0865 17.454 15.0324 17.7965 14.9747C17.9443 14.9495 18.0957 14.9242 18.2615 14.8954C18.3841 14.8738 18.4995 14.863 18.604 14.8594C19.3539 14.8521 19.6892 15.2848 19.6892 15.2848L19.4188 15.4686C19.1737 15.6453 18.8816 15.7607 18.586 15.7967C18.5067 15.8075 18.431 15.8111 18.3589 15.8111H18.3084C17.8253 15.8111 17.4972 15.6705 17.2557 15.6705C17.2521 15.6705 17.2521 15.6705 17.2521 15.6705C17.2485 15.6705 17.2485 15.6705 17.2449 15.6705C17.1944 15.6741 17.1439 15.685 17.0935 15.6994C17.079 15.703 17.0646 15.7102 17.0466 15.7138C17.0033 15.7318 16.9601 15.7534 16.9168 15.7787C16.9132 15.7823 16.906 15.7859 16.8988 15.7895V15.7931C16.8916 15.8003 16.8807 15.8039 16.8735 15.8111C16.8159 16.2582 16.7077 16.8242 16.513 17.0189L16.5166 14.5385V14.5313Z" fill="white"/>
</svg>
