<svg width="1158" height="190" viewBox="0 0 1158 190" fill="none" xmlns="http://www.w3.org/2000/svg">
<path d="M225.246 127.512V59.5929H236.432L270.054 94.3785L269.589 59.5929H287.732V127.512H276.652L243.03 92.726L243.389 127.512H225.246Z" fill="#01052D"/>
<path d="M324.651 112.555H353.135V127.512H306.508V59.5929H352.585V74.5494H324.63V85.7562H349.286V100.713H324.63V112.555H324.651Z" fill="#01052D"/>
<path d="M408.901 62.4317C412.539 64.3171 415.351 67.0288 417.381 70.5031C419.39 73.9986 420.405 78.0237 420.405 82.6208C420.405 87.451 419.369 91.7092 417.296 95.3741C415.224 99.0391 412.285 101.899 408.5 103.912C404.715 105.924 400.316 106.941 395.305 106.941H387.692V127.49H369.549V59.5929H396.299C401.056 59.5929 405.264 60.5462 408.901 62.4317ZM399.914 89.6542C401.162 88.0865 401.796 85.9681 401.796 83.2776C401.796 80.6507 401.141 78.5322 399.83 76.9433C398.519 75.3544 396.721 74.5494 394.48 74.5494H387.692V91.9846H394.48C396.848 91.9846 398.667 91.2007 399.914 89.6542Z" fill="#01052D"/>
<path d="M483.142 59.5929V74.5494H465.823V127.512H447.68V74.5494H430.361V59.5929H483.142Z" fill="#01052D"/>
<path d="M510.36 125.266C506.026 123.148 502.663 120.182 500.274 116.368C497.884 112.555 496.7 108.127 496.7 103.107V59.5929H514.738V102.28C514.738 105.649 515.71 108.36 517.677 110.415C519.622 112.47 522.223 113.487 525.459 113.487C528.567 113.487 531.084 112.47 533.008 110.415C534.932 108.36 535.884 105.649 535.884 102.28V59.5929H554.027V103.107C554.027 108.127 552.843 112.555 550.453 116.368C548.064 120.182 544.701 123.169 540.367 125.266C536.032 127.384 531.02 128.444 525.353 128.444C519.707 128.423 514.695 127.363 510.36 125.266Z" fill="#01052D"/>
<path d="M572.103 127.512V59.5929H583.289L616.911 94.3785L616.446 59.5929H634.589V127.512H623.508L589.886 92.726L590.246 127.512H572.103Z" fill="#01052D"/>
<path d="M671.511 112.555H699.995V127.512H653.368V59.5929H699.445V74.5494H671.49V85.7562H696.146V100.713H671.49V112.555H671.511Z" fill="#01052D"/>
<path d="M815.726 127.512H797.583L795.743 91.9846L782.463 127.512H773.032L759.753 92.1752L757.913 127.512H739.77L744.443 59.5929H764.785L777.705 97.4079L790.71 59.5929H811.053L815.726 127.512Z" fill="#01052D"/>
<path d="M845.414 125.266C841.079 123.148 837.717 120.182 835.328 116.368C832.938 112.555 831.754 108.127 831.754 103.107V59.5929H849.791V102.28C849.791 105.649 850.764 108.36 852.731 110.415C854.676 112.47 857.277 113.487 860.512 113.487C863.621 113.487 866.137 112.47 868.062 110.415C869.986 108.36 870.937 105.649 870.937 102.28V59.5929H889.081V103.107C889.081 108.127 887.896 112.555 885.507 116.368C883.117 120.182 879.755 123.169 875.42 125.266C871.085 127.363 866.074 128.444 860.407 128.444C854.74 128.423 849.749 127.363 845.414 125.266Z" fill="#01052D"/>
<path d="M955.356 59.5929V74.5494H938.037V127.512H919.894V74.5494H902.575V59.5929H955.356Z" fill="#01052D"/>
<path d="M982.568 125.266C978.234 123.148 974.871 120.182 972.482 116.368C970.092 112.555 968.908 108.127 968.908 103.107V59.5929H986.946V102.28C986.946 105.649 987.918 108.36 989.885 110.415C991.83 112.47 994.431 113.487 997.667 113.487C1000.78 113.487 1003.29 112.47 1005.22 110.415C1007.14 108.36 1008.09 105.649 1008.09 102.28V59.5929H1026.23V103.107C1026.23 108.127 1025.05 112.555 1022.66 116.368C1020.27 120.182 1016.91 123.169 1012.57 125.266C1008.24 127.384 1003.23 128.444 997.561 128.444C991.894 128.423 986.903 127.363 982.568 125.266Z" fill="#01052D"/>
<path d="M1082.97 127.512L1079.94 117.682H1057.76L1054.65 127.512H1035.33L1060.43 59.5929H1077.2L1102.3 127.512H1082.97ZM1062.46 102.725H1075.27L1068.86 82.2607L1062.46 102.725Z" fill="#01052D"/>
<path d="M1132.53 112.555H1157.19V127.512H1114.39V59.5929H1132.53V112.555Z" fill="#01052D"/>
<path d="M94.5628 189.473C146.788 189.473 189.126 147.058 189.126 94.7367C189.126 42.4151 146.788 0 94.5628 0C42.3372 0 0 42.4151 0 94.7367C0 147.058 42.3372 189.473 94.5628 189.473Z" fill="#01052D"/>
<path d="M101.322 124.323C99.6814 122.893 96.741 122.594 93.5448 123C90.3487 122.552 87.323 122.872 85.7676 124.323C86.556 124.58 90.6044 125.882 93.7153 125.882C96.8475 125.882 100.704 124.537 101.322 124.323Z" fill="white"/>
<path d="M107.949 140.59C108.993 138.946 109.973 137.409 110.25 135.573C110.634 132.969 109.611 130.642 108.61 129.041C107.8 127.782 106.564 126.885 105.158 126.394H105.136C104.348 126.117 103.56 125.818 102.92 125.498C101.855 126.565 98.7868 129.148 93.5451 129.148C88.6657 129.148 85.1287 126.885 83.6585 125.732C83.1471 125.946 82.6144 126.138 82.0604 126.33C81.2081 126.65 80.4197 127.12 79.7805 127.782C78.6725 129.127 76.6057 132.179 77.117 135.723C77.394 137.559 78.3742 139.096 79.4183 140.739C80.9737 143.151 82.657 146.759 81.272 150.644C81.0589 151.263 80.7606 151.882 80.3771 152.501C80.6754 152.992 82.0178 154.679 83.9355 156.365C86.194 158.372 89.3476 160.378 92.7994 160.634C92.3945 160.058 91.9045 159.033 92.4798 158.18C92.6289 157.881 92.9272 157.56 93.2895 157.155C94.4827 155.703 96.4856 153.376 95.7824 151.199L95.5481 150.409L96.2512 150.858C96.3151 150.943 98.2115 152.309 95.8677 157.432C95.2071 158.82 95.1432 160.101 95.5907 161.168C96.166 162.556 97.4657 163.303 98.1263 163.602C98.2967 162.15 99.2769 157.304 103.176 157.262C104.54 157.262 106.948 156.237 108.396 154.636C104.284 149.641 106.138 143.386 107.949 140.59Z" fill="white"/>
<path d="M107.031 111.387C105.838 110.32 104.73 109.295 103.857 108.527C103.75 109.146 103.26 109.914 101.896 110.747C101.768 110.811 101.619 110.896 101.491 110.982C100.085 111.814 97.9118 112.625 94.5239 113.479C94.2256 113.565 92.9258 113.607 92.6701 113.522C92.521 113.479 92.3505 113.458 92.2227 113.415C89.0265 112.583 86.9384 111.772 85.6173 110.982C83.6144 109.914 83.167 108.932 83.167 108.185C82.5491 108.762 81.8246 109.509 80.951 110.32C78.7776 112.412 76.1142 115.08 73.6212 117.215C68.7418 121.506 66.0357 135.616 67.8043 142.361C68.4648 144.987 70.0202 146.994 71.3626 148.723C73.0033 150.9 74.4309 152.779 73.7064 155.084C73.4507 155.853 73.4934 156.514 73.8556 157.133C74.4735 158.243 76.1142 159.14 78.5006 159.759C77.2861 158.798 74.9423 155.767 77.5631 149.897C78.4367 147.292 77.6057 145.777 75.8372 143.044C74.644 141.187 73.3016 139.095 72.8967 136.342C71.874 129.297 78.2662 123.896 78.5006 123.662C78.5006 123.662 79.2677 122.68 79.8856 122.594C82.1016 122.317 85.6173 118.816 88.7495 119.969C90.6672 120.716 92.3931 120.887 93.4159 120.929V120.887C93.4159 120.887 93.5437 120.929 93.7355 120.929C93.906 120.929 94.119 120.929 94.3534 120.887C95.1844 120.844 96.5694 120.673 98.3805 119.969C101.449 118.816 105.54 122.445 107.756 122.722C108.267 122.786 108.629 123.085 108.885 123.512C108.928 123.555 108.992 123.619 109.098 123.747C110.27 124.793 115.384 129.831 114.468 136.192C114.063 138.946 112.721 141.038 111.527 142.895C109.993 145.265 109.908 147.421 110.505 150.004C110.654 150.473 110.782 150.964 110.888 151.476C110.909 151.519 110.909 151.562 110.931 151.605C111.506 154.123 111.506 157.005 109.077 159.332C108.949 159.481 108.821 159.61 108.693 159.716C110.142 159.396 112.38 158.542 113.168 157.133C113.53 156.514 113.615 155.853 113.338 155.084C112.593 152.779 114.02 150.9 115.661 148.723C117.025 146.994 118.58 144.987 119.241 142.361C120.988 135.616 118.282 121.506 113.424 117.215C111.357 115.465 109.077 113.287 107.031 111.387Z" fill="white"/>
<path d="M130.216 114.525C130.216 114.184 130.28 113.821 130.365 113.458C130.386 113.415 130.386 113.351 130.407 113.309C130.706 111.985 130.855 110.683 130.897 109.424C130.961 106.862 130.535 104.514 130.024 102.55C129.172 99.54 128.042 97.448 127.85 97.0852C127.829 97.0425 127.808 97.0211 127.808 97.0211C127.126 98.1098 125.102 101.504 123.312 105.645C122.247 108.079 121.288 110.768 120.755 113.373C120.478 114.718 120.308 116.041 120.308 117.301C120.308 120.844 121.501 123.512 122.673 126.138C124.271 129.746 125.911 133.481 124.527 139.394C127.552 135.872 129.427 131.176 127.041 125.476C127.041 125.476 129.47 125.882 129.939 128.977C130.834 128.187 133.05 125.925 133.05 122.594C133.05 120.268 132.261 119.115 131.494 117.962C130.834 116.98 130.216 116.084 130.216 114.525Z" fill="white"/>
<path d="M58.5356 90.126C58.9405 90.0192 59.3027 89.8058 59.6863 89.635C59.7715 89.5496 59.878 89.5283 59.9633 89.4856V89.4429C60.0911 89.4002 60.1763 89.3148 60.3042 89.2294C65.8228 85.2376 66.6751 70.8712 72.3855 67.2209C73.6214 66.1323 75.9652 64.9368 79.8432 63.7414C82.5918 62.9089 84.9144 61.0304 86.2141 58.5115C76.7536 59.3226 68.0601 61.5854 61.0499 64.8301C60.3894 65.8334 58.8766 68.0108 58.0882 69.0354C55.4248 72.643 52.3778 76.6989 51.6107 81.4379C52.1008 81.3525 53.1235 81.0536 54.8068 79.8368L55.4674 79.3672L55.2543 80.157C54.6364 82.2063 54.1037 84.1702 53.3366 85.5364C51.2911 89.2721 51.3337 94.4167 51.8664 98.5366C52.1647 100.799 52.6122 102.763 52.9531 104.044C52.9957 103.681 53.0809 103.233 53.1662 102.785C53.1662 102.785 53.1662 102.785 53.1662 102.742C53.2088 101.845 53.294 100.821 53.4432 99.7106C53.9758 95.8255 55.3182 91.2573 58.5356 90.126Z" fill="white"/>
<path d="M66.4302 56.2061C74.8467 53.3883 84.6907 51.7873 95.3019 51.7873C105.615 51.7873 115.182 53.3029 123.406 55.9712C123.577 55.6937 123.726 55.4162 123.875 55.1601C124.664 53.7512 125.431 52.4063 126.176 51.0402L135.573 34.6672L117.93 39.1287L121.127 40.8578C122.852 41.797 123.641 43.7823 122.98 45.4687C122.235 47.2618 120.189 48.1797 118.357 47.4753C113.52 45.5114 108.342 44.1879 102.93 43.4407C101.225 43.2059 99.9469 41.6903 99.9469 39.9185C99.9469 37.7411 101.715 35.9694 103.889 35.9694H106.424L94.8544 21.603L83.2631 35.9694H85.7987C87.9721 35.9694 89.7406 37.7411 89.7406 39.9185C89.7406 41.6903 88.4622 43.2059 86.7576 43.4407C81.0045 44.1879 75.4006 45.7035 70.1164 48.0089H69.8181C67.9004 47.4326 66.622 46.1091 66.4515 44.5081C66.345 43.0351 67.0268 41.6476 68.3479 40.9859L71.7571 39.1287L54.1357 34.6672L63.4684 50.9975C64.4486 52.7692 65.45 54.4556 66.4302 56.2061Z" fill="white"/>
<path d="M131.813 80.1573L131.622 79.3674L132.261 79.8371C134.157 81.1819 135.755 81.5875 136.437 81.7583C135.67 77.2327 132.431 73.2196 129.555 69.6547C128.702 68.5873 127.701 66.4527 126.849 64.7663C119.647 61.4575 110.655 59.1734 100.854 58.4476C101.727 60.1767 102.793 61.7564 104.284 62.8664C104.305 62.8664 104.348 62.9091 104.348 62.9091C105.264 63.3574 106.202 63.6989 107.182 63.8484C107.715 63.9337 108.332 64.0191 109.036 64.0191C109.355 64.0191 109.675 64.0618 110.016 64.1045C111.486 64.3393 112.722 65.1292 113.787 66.2819C113.979 66.474 114.235 66.6875 114.448 66.9436C114.469 66.9863 114.554 67.0504 114.597 67.1358C119.476 72.7713 121.202 85.2378 126.785 89.2296C126.891 89.315 126.977 89.4004 127.104 89.4431C127.19 89.5285 127.317 89.5498 127.381 89.5925C127.765 89.806 128.127 90.0194 128.532 90.1262C131.92 91.3216 133.241 96.3167 133.71 100.309C133.795 101.184 133.859 102.016 133.901 102.742C133.901 102.785 133.901 102.785 133.901 102.785C133.987 103.233 134.072 103.681 134.115 104.044C134.392 102.934 134.775 101.291 135.073 99.348C135.713 95.1 135.947 89.5285 133.731 85.5366C133.007 84.2558 132.516 82.5694 131.813 80.1573Z" fill="white"/>
<path d="M63.4397 105.133C61.7351 101.226 59.8174 98.0458 59.1782 97.0211C59.1782 97.0211 59.1569 97.0425 59.1356 97.0852C58.9438 97.448 57.921 99.3266 57.1113 102.08C56.5573 104.001 56.0886 106.35 56.0886 108.911C56.0886 110.341 56.2377 111.793 56.5787 113.309C56.6 113.351 56.6 113.415 56.6213 113.458C56.7065 113.821 56.7704 114.184 56.7704 114.525C56.7704 116.084 56.1525 116.98 55.492 117.962C54.7249 119.115 53.9365 120.268 53.9365 122.594C53.9365 125.925 56.1525 128.187 57.0474 128.977C57.5162 125.882 59.9452 125.476 59.9452 125.476C57.5588 131.176 59.4339 135.872 62.4595 139.394C61.0745 133.481 62.7152 129.746 64.3133 126.138C65.4852 123.512 66.6784 120.844 66.6784 117.301C66.6784 115.934 66.4867 114.483 66.167 113.031C65.5704 110.341 64.5477 107.588 63.4397 105.133Z" fill="white"/>
<path d="M97.6128 83.7432C97.6128 83.6578 97.6128 83.5724 97.6554 83.5084C97.7832 83.1882 98.6568 82.7185 99.9353 82.1635C104.175 80.3704 112.4 77.9369 114.254 77.7661C114.851 77.7448 115.596 78.0436 116.363 78.5773V78.5559C116.385 78.5773 116.427 78.5986 116.449 78.62C114.36 73.5395 111.697 69.142 107.308 69.142C101.682 69.142 98.1668 63.4852 96.0786 58.2552H96.0573V58.2339C95.3755 58.1912 94.6936 58.1912 94.0118 58.1912C93.8413 58.1912 93.6709 58.1912 93.5004 58.2125C92.6268 58.1912 91.7745 58.2125 90.9222 58.2552C88.8128 63.4852 85.3183 69.142 79.6718 69.142C75.2825 69.142 72.619 73.5395 70.5309 78.62C70.5522 78.5986 70.5948 78.5773 70.6161 78.5559V78.5773C71.3832 78.0436 72.129 77.7448 72.7256 77.7661C74.5793 77.9369 82.804 80.3704 87.0442 82.1635C88.3227 82.7185 89.1963 83.1882 89.3241 83.5084C89.3454 83.5724 89.3667 83.6578 89.3667 83.7859L89.3881 98.4724C88.2375 97.3197 87.5982 93.9683 87.2573 91.3213C87.2147 91.2786 87.1508 91.2572 87.1082 91.2145V91.1932C87.0655 91.1718 87.0229 91.1505 87.0016 91.1292C86.7459 90.9797 86.4902 90.8516 86.2345 90.7449C86.128 90.7236 86.0428 90.6809 85.9575 90.6595C85.6592 90.5741 85.3609 90.5101 85.0626 90.4888C85.0413 90.4888 85.0413 90.4888 85.02 90.4888C85.02 90.4888 85.02 90.4888 84.9987 90.4888C83.5285 90.4888 81.483 91.3853 78.4786 91.3213C78.0525 91.3213 77.605 91.2999 77.1362 91.2359C75.389 91.0224 73.6631 90.3393 72.2142 89.2933L70.6161 88.2047C70.6161 88.2047 72.5977 85.643 77.0297 85.6857C77.6476 85.7071 78.3295 85.7711 79.0539 85.8992C80.0341 86.07 80.929 86.2194 81.8026 86.3688C83.8268 86.7104 85.5527 87.0306 86.8098 87.8204C86.8312 87.8418 86.8738 87.8418 86.9164 87.8631C86.5968 87.3721 86.2345 86.9238 85.8723 86.5183C85.7019 86.3048 85.5101 86.1127 85.3183 85.9206C85.1905 85.7925 85.0839 85.643 84.9348 85.515C81.2273 82.0141 76.2839 81.5872 72.3207 82.0141C71.1275 82.1422 69.9982 82.3557 69.0607 82.5691C66.9299 88.4822 65.8859 94.011 62.8176 94.0323H62.7963C62.5832 94.0323 62.3488 94.0323 62.1357 94.1177V94.139C62.1357 94.139 62.1784 94.1817 62.1997 94.2031L67.4839 102.784C67.6757 103.211 67.8462 103.638 67.974 104.044C68.2936 105.389 68.7624 106.52 69.2951 107.502C69.4868 107.886 69.6999 108.228 69.8917 108.548C70.1048 108.89 70.3178 109.188 70.5309 109.466C70.7227 109.722 70.9144 109.978 71.0849 110.192C71.4684 110.64 71.7881 111.003 72.0437 111.28C72.1716 111.387 74.6859 110.576 75.8791 109.914C76.2413 109.722 76.6249 109.509 77.0297 109.317C77.4772 109.06 77.9459 108.826 78.436 108.591C79.9062 107.929 83.2728 106.755 83.2941 106.755C83.5711 105.175 84.2743 102.379 86.2345 102.123C86.5115 102.101 86.8098 102.101 87.1295 102.187C88.1522 102.422 88.5784 103.446 88.7701 104.044C88.6636 103.937 88.5571 103.916 88.4079 103.916C88.4079 103.916 88.3866 103.916 88.3653 103.916C88.0883 103.937 87.6621 104.001 86.8951 103.916C86.8738 103.916 86.8525 103.916 86.8525 103.916C86.7672 103.916 86.682 103.894 86.6181 103.894C85.1905 103.894 85.297 105.56 85.4462 106.776V106.798C85.4462 106.798 86.2772 107.182 87.4065 107.694C87.7261 107.844 88.067 107.993 88.4292 108.164C88.898 108.377 89.3667 108.591 89.8568 108.804C91.4762 109.487 93.053 110.128 93.5004 110.213C93.5217 110.213 93.543 110.213 93.543 110.213C94.4166 110.256 100.681 107.246 101.448 106.883C101.512 106.862 101.533 106.84 101.533 106.84C101.533 106.84 101.533 106.819 101.533 106.798V106.776C101.682 105.56 101.789 103.894 100.361 103.894C100.298 103.894 100.212 103.916 100.127 103.916C100.106 103.916 100.106 103.916 100.084 103.916C99.8714 103.894 99.1256 103.83 98.6142 103.916C98.5929 103.916 98.5929 103.916 98.5716 103.916C98.4224 103.916 98.3159 103.937 98.2094 104.044C98.4011 103.446 98.8273 102.422 99.8501 102.187C100.17 102.101 100.468 102.101 100.745 102.123C102.705 102.379 103.408 105.175 103.685 106.755C103.707 106.755 107.073 107.929 108.544 108.591C108.927 108.783 109.311 108.975 109.673 109.167C110.184 109.423 110.674 109.679 111.1 109.914C112.294 110.576 114.808 111.387 114.936 111.28C115.191 111.003 115.511 110.64 115.895 110.192C116.065 109.978 116.257 109.722 116.449 109.466C116.662 109.188 116.875 108.89 117.088 108.548C117.28 108.228 117.493 107.886 117.684 107.502C117.748 107.395 117.812 107.267 117.876 107.139C117.983 106.926 118.089 106.691 118.196 106.435C118.302 106.2 118.409 105.944 118.494 105.688C118.601 105.431 118.686 105.175 118.771 104.898C118.856 104.62 118.942 104.343 119.006 104.044C119.133 103.638 119.304 103.211 119.496 102.784L124.972 94.3098C124.993 94.2885 125.036 94.2458 125.036 94.2458V94.2244C124.822 94.139 124.588 94.139 124.375 94.139H124.354C121.285 94.1177 120.05 88.4822 117.919 82.5691C116.981 82.3557 115.852 82.1422 114.659 82.0141C110.696 81.5872 105.752 82.0141 102.045 85.515C101.896 85.643 101.789 85.7925 101.661 85.9206C101.469 86.1127 101.278 86.3048 101.107 86.5183C100.745 86.9238 100.383 87.3721 100.063 87.8631C100.106 87.8418 100.148 87.8418 100.17 87.8204C101.427 87.0306 103.153 86.7104 105.177 86.3688C106.051 86.2194 106.945 86.07 107.926 85.8992C108.65 85.7711 109.332 85.7071 109.95 85.6857C114.382 85.643 116.363 88.2047 116.363 88.2047L114.765 89.2933C113.316 90.3393 111.59 91.0224 109.843 91.2359C109.375 91.2999 108.927 91.3213 108.501 91.3213H108.203C105.347 91.3213 103.408 90.4888 101.981 90.4888C101.959 90.4888 101.959 90.4888 101.959 90.4888C101.938 90.4888 101.938 90.4888 101.917 90.4888C101.619 90.5101 101.32 90.5741 101.022 90.6595C100.937 90.6809 100.852 90.7236 100.745 90.7449C100.489 90.8516 100.234 90.9797 99.9779 91.1292C99.9566 91.1505 99.914 91.1718 99.8714 91.1932V91.2145C99.8287 91.2572 99.7648 91.2786 99.7222 91.3213C99.3813 93.9683 98.7421 97.3197 97.5915 98.4724L97.6128 83.7859V83.7432V83.7432Z" fill="white"/>
</svg>
